<?xml version="1.0" standalone="no"?>
<!DOCTYPE svg PUBLIC "-//W3C//DTD SVG 20010904//EN"
 "http://www.w3.org/TR/2001/REC-SVG-20010904/DTD/svg10.dtd">
<svg version="1.0" xmlns="http://www.w3.org/2000/svg"
 width="4500.000000pt" height="4500.000000pt" viewBox="0 0 4500.000000 4500.000000"
 preserveAspectRatio="xMidYMid meet">
<metadata>
Created by potrace 1.16, written by Peter Selinger 2001-2019
</metadata>
<g transform="translate(0.000000,4500.000000) scale(0.100000,-0.100000)"
fill="#000000" stroke="none">
<path d="M4896 25365 c-74 -26 -157 -130 -195 -243 -21 -60 -21 -78 -21 -1166
0 -1077 0 -1105 20 -1169 11 -36 38 -91 60 -123 23 -36 417 -436 987 -1006
736 -735 958 -952 993 -967 55 -25 155 -28 208 -6 46 20 633 602 665 660 22
39 22 50 27 535 5 487 6 496 28 552 13 32 43 83 67 115 23 32 354 368 734 748
380 379 691 692 691 695 0 3 -160 4 -356 2 -340 -2 -356 -3 -341 -20 15 -17
-18 -52 -526 -560 l-542 -542 -543 543 c-511 511 -541 543 -525 559 16 17 -4
18 -340 20 -196 2 -357 1 -357 -2 0 -2 317 -322 704 -710 453 -454 713 -722
731 -753 15 -26 36 -75 46 -108 18 -57 19 -103 19 -742 l0 -682 -945 945 -945
945 305 305 305 306 0 44 c0 43 -2 47 -133 177 l-133 133 -48 0 -48 0 -154
-152 -154 -152 0 825 c0 573 -3 836 -11 864 -7 23 -28 57 -53 81 -60 61 -138
78 -220 49z"/>
<path d="M20503 24769 c-100 -19 -199 -89 -248 -173 -58 -101 -52 -254 14
-351 67 -100 163 -152 298 -162 184 -14 335 63 401 206 23 48 27 69 27 151 -1
83 -4 101 -27 145 -32 61 -103 129 -161 154 -89 38 -205 50 -304 30z"/>
<path d="M19100 23130 l0 -1470 315 0 315 0 0 1470 0 1470 -315 0 -315 0 0
-1470z"/>
<path d="M12430 23819 c-254 -22 -497 -126 -669 -285 -97 -90 -162 -177 -222
-299 -119 -240 -148 -536 -79 -812 27 -109 116 -282 194 -379 91 -114 220
-216 361 -286 245 -123 574 -164 890 -112 165 27 300 78 425 158 73 47 190
151 190 168 0 13 -321 358 -332 358 -6 0 -31 -18 -56 -41 -64 -56 -210 -125
-304 -144 -319 -63 -623 57 -732 288 -18 40 -36 82 -39 95 l-5 22 803 0 804 0
7 47 c12 81 -3 330 -25 420 -59 238 -175 425 -353 567 -225 180 -531 264 -858
235z m252 -483 c103 -22 175 -61 251 -137 70 -70 117 -152 136 -236 l9 -43
-515 0 -515 0 6 38 c4 20 23 71 43 112 101 209 341 317 585 266z"/>
<path d="M17513 23820 c-195 -20 -359 -88 -489 -203 l-54 -49 0 111 0 111
-300 0 -300 0 0 -1450 0 -1450 315 0 315 0 0 485 0 485 62 -50 c177 -143 417
-207 677 -181 322 33 568 167 750 411 141 189 204 396 204 675 1 167 -13 271
-50 390 -151 479 -606 767 -1130 715z m197 -545 c67 -22 157 -83 206 -138 47
-53 98 -144 120 -214 25 -78 30 -256 10 -347 -71 -316 -354 -494 -661 -416
-97 25 -152 56 -232 133 -69 66 -122 157 -149 257 -23 87 -23 262 0 349 49
182 182 327 349 381 94 30 259 27 357 -5z"/>
<path d="M22375 23819 c-410 -34 -767 -264 -935 -604 -141 -283 -147 -667 -15
-952 202 -437 680 -685 1222 -633 346 33 628 189 770 429 71 119 87 98 -181
244 -129 70 -238 127 -242 127 -5 0 -29 -30 -54 -67 -167 -248 -512 -296 -773
-106 -53 39 -126 135 -156 206 -56 130 -64 319 -20 462 71 232 269 375 519
376 152 0 260 -42 362 -139 32 -30 71 -75 86 -99 15 -23 31 -43 36 -43 9 0
464 246 476 257 9 9 -71 150 -120 210 -106 131 -302 249 -493 298 -83 21 -312
48 -366 44 -9 -1 -61 -6 -116 -10z"/>
<path d="M24537 23819 c-137 -9 -303 -42 -435 -85 -108 -35 -257 -107 -307
-149 l-30 -24 110 -216 c60 -118 112 -215 115 -215 3 0 19 9 35 21 98 66 254
129 388 154 93 18 283 20 359 4 181 -38 299 -165 315 -340 l6 -57 -374 -5
c-337 -4 -384 -7 -473 -26 -372 -82 -555 -282 -556 -606 0 -250 125 -442 367
-564 139 -69 348 -101 539 -82 214 22 352 79 467 193 l67 67 0 -114 0 -115
295 0 295 0 0 658 c-1 654 -4 744 -36 877 -76 312 -291 512 -639 593 -79 19
-323 45 -380 41 -11 -1 -69 -5 -128 -10z m553 -1379 c0 -98 -3 -116 -25 -160
-68 -134 -202 -214 -381 -227 -188 -14 -332 54 -373 176 -37 110 20 233 129
280 68 29 162 38 428 40 l222 1 0 -110z"/>
<path d="M13780 23785 c0 -3 176 -241 390 -529 l391 -525 -402 -523 c-221
-288 -406 -529 -411 -535 -8 -10 61 -13 339 -13 l349 0 119 163 c66 89 172
233 236 319 l116 158 228 -320 228 -320 360 0 359 0 -28 38 c-240 314 -794
1048 -794 1052 0 3 120 163 268 355 147 193 325 425 395 518 l128 167 -339 0
-339 0 -124 -167 c-68 -93 -169 -230 -225 -306 l-102 -137 -222 305 -222 305
-349 0 c-192 0 -349 -2 -349 -5z"/>
<path d="M20290 22725 l0 -1065 315 0 315 0 0 1065 0 1065 -315 0 -315 0 0
-1065z"/>
</g>
</svg>
